<!DOCTYPE svg PUBLIC "-//W3C//DTD SVG 1.1//EN" "http://www.w3.org/Graphics/SVG/1.1/DTD/svg11.dtd">
<!-- Uploaded to: SVG Repo, www.svgrepo.com, Transformed by: SVG Repo Mixer Tools -->
<svg fill="#22a037" height="800px" width="800px" version="1.1" id="Capa_1" xmlns="http://www.w3.org/2000/svg" xmlns:xlink="http://www.w3.org/1999/xlink" viewBox="0 0 121.669 121.669" xml:space="preserve" stroke="#22a037">
<g id="SVGRepo_bgCarrier" stroke-width="0"/>
<g id="SVGRepo_tracerCarrier" stroke-linecap="round" stroke-linejoin="round"/>
<g id="SVGRepo_iconCarrier"> <g> <path d="M60.834,121.669C27.291,121.669,0,94.379,0,60.834C0,27.29,27.291,0,60.834,0s60.834,27.29,60.834,60.834 C121.669,94.379,94.378,121.669,60.834,121.669z M60.834,6C30.6,6,6,30.599,6,60.834C6,91.07,30.6,115.669,60.834,115.669 s54.834-24.599,54.834-54.835S91.07,6,60.834,6z"/> <circle cx="26.828" cy="60.835" r="8.364"/> <circle cx="94.842" cy="60.835" r="8.364"/> <path d="M44.957,95.753l-1.245-5.869l32.998-7l1.245,5.869L44.957,95.753z"/> </g> </g>
</svg>