<!DOCTYPE svg PUBLIC "-//W3C//DTD SVG 1.1//EN" "http://www.w3.org/Graphics/SVG/1.1/DTD/svg11.dtd">
<!-- Uploaded to: SVG Repo, www.svgrepo.com, Transformed by: SVG Repo Mixer Tools -->
<svg fill="#d55f10" height="800px" width="800px" version="1.1" id="Capa_1" xmlns="http://www.w3.org/2000/svg" xmlns:xlink="http://www.w3.org/1999/xlink" viewBox="0 0 121.669 121.669" xml:space="preserve" stroke="#d55f10">
<g id="SVGRepo_bgCarrier" stroke-width="0"/>
<g id="SVGRepo_tracerCarrier" stroke-linecap="round" stroke-linejoin="round"/>
<g id="SVGRepo_iconCarrier"> <g> <path d="M60.835,121.669c-33.544,0-60.834-27.29-60.834-60.835C0.001,27.29,27.291,0,60.835,0s60.834,27.29,60.834,60.834 C121.669,94.379,94.379,121.669,60.835,121.669z M60.835,6C30.6,6,6.001,30.599,6.001,60.834c0,30.236,24.599,54.835,54.834,54.835 s54.834-24.599,54.834-54.835C115.669,30.599,91.071,6,60.835,6z"/> <polygon points="98.363,45.285 94.119,41.042 88.006,47.155 81.892,41.042 77.65,45.285 83.763,51.398 77.65,57.512 81.892,61.755 88.006,55.642 94.119,61.755 98.363,57.512 92.249,51.398 "/> <polygon points="43.622,45.285 39.379,41.042 33.266,47.155 27.151,41.042 22.908,45.285 29.022,51.398 22.908,57.512 27.151,61.755 33.266,55.642 39.379,61.755 43.622,57.512 37.509,51.398 "/> <path d="M60.636,104.144c-6.583,0-11.939-5.356-11.939-11.939s5.356-11.94,11.939-11.94s11.939,5.356,11.939,11.939 S67.219,104.144,60.636,104.144z M60.636,86.265c-3.275,0-5.939,2.664-5.939,5.939s2.665,5.939,5.939,5.939 c3.275,0,5.939-2.664,5.939-5.939S63.911,86.265,60.636,86.265z"/> </g> </g>
</svg>