<!DOCTYPE svg PUBLIC "-//W3C//DTD SVG 1.1//EN" "http://www.w3.org/Graphics/SVG/1.1/DTD/svg11.dtd">
<!-- Uploaded to: SVG Repo, www.svgrepo.com, Transformed by: SVG Repo Mixer Tools -->
<svg fill="#dea11b" height="800px" width="800px" version="1.1" id="Capa_1" xmlns="http://www.w3.org/2000/svg" xmlns:xlink="http://www.w3.org/1999/xlink" viewBox="0 0 121.669 121.669" xml:space="preserve" stroke="#dea11b">
<g id="SVGRepo_bgCarrier" stroke-width="0"/>
<g id="SVGRepo_tracerCarrier" stroke-linecap="round" stroke-linejoin="round"/>
<g id="SVGRepo_iconCarrier"> <g> <path d="M60.834,121.669C27.291,121.669,0,94.379,0,60.834C0,27.29,27.291,0,60.834,0s60.834,27.29,60.834,60.834 C121.669,94.379,94.378,121.669,60.834,121.669z M60.834,6C30.599,6,6,30.599,6,60.834c0,30.236,24.599,54.835,54.834,54.835 s54.834-24.599,54.834-54.835C115.669,30.599,91.07,6,60.834,6z"/> <polygon points="68.421,76.206 68.387,76.241 68.352,76.206 60.834,83.724 53.316,76.206 53.281,76.241 53.247,76.206 41.492,87.962 45.735,92.204 53.283,84.656 60.831,92.204 60.834,92.2 60.839,92.204 68.387,84.656 75.936,92.204 80.178,87.961 "/> <polygon points="98.361,45.285 94.118,41.042 88.005,47.155 81.891,41.042 77.648,45.285 83.762,51.398 77.648,57.512 81.891,61.755 88.005,55.642 94.118,61.755 98.361,57.512 92.249,51.398 "/> <polygon points="43.621,45.285 39.378,41.042 33.265,47.155 27.149,41.042 22.907,45.285 29.021,51.398 22.907,57.512 27.149,61.755 33.265,55.642 39.378,61.755 43.621,57.512 37.508,51.398 "/> </g> </g>
</svg>