<!DOCTYPE svg PUBLIC "-//W3C//DTD SVG 1.1//EN" "http://www.w3.org/Graphics/SVG/1.1/DTD/svg11.dtd">
<!-- Uploaded to: SVG Repo, www.svgrepo.com, Transformed by: SVG Repo Mixer Tools -->
<svg fill="#d5dd5f" height="800px" width="800px" version="1.1" id="Capa_1" xmlns="http://www.w3.org/2000/svg" xmlns:xlink="http://www.w3.org/1999/xlink" viewBox="0 0 121.669 121.669" xml:space="preserve">
<g id="SVGRepo_bgCarrier" stroke-width="0"/>
<g id="SVGRepo_tracerCarrier" stroke-linecap="round" stroke-linejoin="round"/>
<g id="SVGRepo_iconCarrier"> <g> <path d="M60.835,121.669c-33.544,0-60.834-27.29-60.834-60.835C0.001,27.29,27.291,0,60.835,0s60.834,27.29,60.834,60.834 C121.669,94.379,94.379,121.669,60.835,121.669z M60.835,6C30.6,6,6.001,30.599,6.001,60.834c0,30.236,24.599,54.835,54.834,54.835 s54.834-24.599,54.834-54.835C115.669,30.599,91.071,6,60.835,6z"/> <circle cx="26.829" cy="60.835" r="8.364"/> <circle cx="94.842" cy="60.835" r="8.364"/> <path d="M78.844,97.437h-6c0-5.642-5.477-10.231-12.208-10.231s-12.208,4.59-12.208,10.231h-6c0-8.95,8.168-16.231,18.208-16.231 S78.844,88.486,78.844,97.437z"/> </g> </g>
</svg>